# xmcd
# Track frame offsets:
# 150
# 11302
# 27083
# 43620
# 55841
# 67862
# 86372
# 107663
# 118815
# 134596
# 151133
# 163354
# 175375
# 193885
#
# Disc length: 2867 seconds
# Revision: 0
# Processed by: cddbd v1.5.1PL0 Copyright (c) Steve Scherf et al.
# Submitted via: VisiTrax 2.9.9.202 - For more info visit www.synapsa.com
#
DISCID=b60b310e
DTITLE=Blues Ministrarna - Din Röst i natten
DYEAR=2004
DGENRE=Blues
TTITLE0=Albert Collins - Don´t loose your cool
TTITLE1=Willie Dixon - My babe
TTITLE2=Peter Green - Black magic woman
TTITLE3=Marty Robbins - Sugaree
TTITLE4=Mattias Frisk - Lo fat - Hi fibre
TTITLE5=Peter Gfree - Rolli´man
TTITLE6=B.B. King - Jules Taub - Tree  clock in the morning
TTITLE7=Albert Collins - Don´t loose your cool
TTITLE8=Willie Dixon - My babe
TTITLE9=Peter Green - Black magic woman
TTITLE10=Marty Robbins - Sugaree
TTITLE11=Mattias Frisk - Lo fat - Hi fibre
TTITLE12=Peter Green - Rolli´man
TTITLE13=B.B. King - Jules Taub - Tree  clock in the morning
EXTD=
EXTT0=
EXTT1=
EXTT2=
EXTT3=
EXTT4=
EXTT5=
EXTT6=
EXTT7=
EXTT8=
EXTT9=
EXTT10=
EXTT11=
EXTT12=
EXTT13=
PLAYORDER=
